M48
; DRILL file {KiCad 8.0.5} date 2026-05-04T20:37:18-0700
; FORMAT={-:-/ absolute / metric / decimal}
; #@! TF.CreationDate,2026-05-04T20:37:18-07:00
; #@! TF.GenerationSoftware,Kicad,Pcbnew,8.0.5
; #@! TF.FileFunction,Plated,1,2,PTH
FMAT,2
METRIC
; #@! TA.AperFunction,Plated,PTH,ComponentDrill
T1C1.000
%
G90
G05
T1
X74.0Y-60.46
X74.0Y-63.0
X74.0Y-88.46
X74.0Y-91.0
X80.1Y-49.24
X80.1Y-51.78
X82.64Y-49.24
X82.64Y-51.78
X85.18Y-49.24
X85.18Y-51.78
X85.7Y-61.1
X85.74Y-76.1
X87.72Y-49.24
X87.72Y-51.78
X88.24Y-61.1
X88.28Y-76.1
X90.26Y-49.24
X90.26Y-51.78
X90.78Y-61.1
X90.82Y-76.1
X92.8Y-49.24
X92.8Y-51.78
X93.32Y-61.1
X93.36Y-76.1
X94.778Y-90.475
X94.778Y-93.015
X94.778Y-95.555
X95.34Y-49.24
X95.34Y-51.78
X95.86Y-61.1
X95.9Y-76.1
X97.88Y-49.24
X97.88Y-51.78
X98.4Y-61.1
X98.44Y-76.1
X100.42Y-49.24
X100.42Y-51.78
X100.94Y-61.1
X100.98Y-76.1
X102.96Y-49.24
X102.96Y-51.78
X103.48Y-61.1
X103.52Y-76.1
X105.5Y-49.24
X105.5Y-51.78
X108.04Y-49.24
X108.04Y-51.78
X110.0Y-90.46
X110.0Y-93.0
X110.0Y-95.54
X110.58Y-49.24
X110.58Y-51.78
X113.12Y-49.24
X113.12Y-51.78
X115.66Y-49.24
X115.66Y-51.78
X118.2Y-49.24
X118.2Y-51.78
X120.74Y-49.24
X120.74Y-51.78
X123.28Y-49.24
X123.28Y-51.78
X125.82Y-49.24
X125.82Y-51.78
X128.36Y-49.24
X128.36Y-51.78
M30
