G04 #@! TF.GenerationSoftware,KiCad,Pcbnew,8.0.5*
G04 #@! TF.CreationDate,2026-05-01T14:27:22-07:00*
G04 #@! TF.ProjectId,Lec18-PCB_kicad,4c656331-382d-4504-9342-5f6b69636164,rev?*
G04 #@! TF.SameCoordinates,Original*
G04 #@! TF.FileFunction,Profile,NP*
%FSLAX46Y46*%
G04 Gerber Fmt 4.6, Leading zero omitted, Abs format (unit mm)*
G04 Created by KiCad (PCBNEW 8.0.5) date 2026-05-01 14:27:22*
%MOMM*%
%LPD*%
G01*
G04 APERTURE LIST*
G04 #@! TA.AperFunction,Profile*
%ADD10C,0.100000*%
G04 #@! TD*
G04 APERTURE END LIST*
D10*
X113639686Y-84010006D02*
G75*
G02*
X118720491Y-84000000I2540314J50006D01*
G01*
X72230000Y-66510000D02*
X76230000Y-66510000D01*
X118720000Y-103010000D02*
X133730000Y-103010000D01*
X71730000Y-50010000D02*
G75*
G02*
X74730000Y-47010000I3000000J0D01*
G01*
X133730000Y-47010000D02*
G75*
G02*
X136730000Y-50010000I0J-3000000D01*
G01*
X118720491Y-84000000D02*
X118720000Y-103010000D01*
X113640000Y-103010000D02*
X113639686Y-84010006D01*
X133730000Y-47010000D02*
X74730000Y-47010000D01*
X76230000Y-66510000D02*
G75*
G02*
X76730000Y-67010000I0J-500000D01*
G01*
X71730000Y-84010000D02*
G75*
G02*
X72229127Y-83510001I500000J0D01*
G01*
X136730000Y-100010000D02*
G75*
G02*
X133730000Y-103010000I-3000000J0D01*
G01*
X74730000Y-103010000D02*
X113640000Y-103010000D01*
X136730000Y-100010000D02*
X136730000Y-50010000D01*
X76730000Y-83010000D02*
G75*
G02*
X76230000Y-83510000I-500000J0D01*
G01*
X71730000Y-84010000D02*
X71730000Y-100010000D01*
X72230000Y-66510000D02*
G75*
G02*
X71730000Y-66010000I0J500000D01*
G01*
X74730000Y-103010000D02*
G75*
G02*
X71730000Y-100010000I0J3000000D01*
G01*
X71730000Y-50010000D02*
X71730000Y-66010000D01*
X76230000Y-83510000D02*
X72230000Y-83510000D01*
X76730000Y-67010000D02*
X76730000Y-83010000D01*
M02*
