G04 #@! TF.GenerationSoftware,KiCad,Pcbnew,8.0.5*
G04 #@! TF.CreationDate,2026-05-01T14:27:22-07:00*
G04 #@! TF.ProjectId,Lec18-PCB_kicad,4c656331-382d-4504-9342-5f6b69636164,rev?*
G04 #@! TF.SameCoordinates,Original*
G04 #@! TF.FileFunction,Legend,Top*
G04 #@! TF.FilePolarity,Positive*
%FSLAX46Y46*%
G04 Gerber Fmt 4.6, Leading zero omitted, Abs format (unit mm)*
G04 Created by KiCad (PCBNEW 8.0.5) date 2026-05-01 14:27:22*
%MOMM*%
%LPD*%
G01*
G04 APERTURE LIST*
%ADD10C,0.150000*%
%ADD11C,0.120000*%
G04 APERTURE END LIST*
D10*
X102917438Y-80139411D02*
X102869819Y-80234649D01*
X102869819Y-80234649D02*
X102869819Y-80377506D01*
X102869819Y-80377506D02*
X102917438Y-80520363D01*
X102917438Y-80520363D02*
X103012676Y-80615601D01*
X103012676Y-80615601D02*
X103107914Y-80663220D01*
X103107914Y-80663220D02*
X103298390Y-80710839D01*
X103298390Y-80710839D02*
X103441247Y-80710839D01*
X103441247Y-80710839D02*
X103631723Y-80663220D01*
X103631723Y-80663220D02*
X103726961Y-80615601D01*
X103726961Y-80615601D02*
X103822200Y-80520363D01*
X103822200Y-80520363D02*
X103869819Y-80377506D01*
X103869819Y-80377506D02*
X103869819Y-80282268D01*
X103869819Y-80282268D02*
X103822200Y-80139411D01*
X103822200Y-80139411D02*
X103774580Y-80091792D01*
X103774580Y-80091792D02*
X103441247Y-80091792D01*
X103441247Y-80091792D02*
X103441247Y-80282268D01*
X103869819Y-79663220D02*
X102869819Y-79663220D01*
X102869819Y-79663220D02*
X103869819Y-79091792D01*
X103869819Y-79091792D02*
X102869819Y-79091792D01*
X103869819Y-78615601D02*
X102869819Y-78615601D01*
X102869819Y-78615601D02*
X102869819Y-78377506D01*
X102869819Y-78377506D02*
X102917438Y-78234649D01*
X102917438Y-78234649D02*
X103012676Y-78139411D01*
X103012676Y-78139411D02*
X103107914Y-78091792D01*
X103107914Y-78091792D02*
X103298390Y-78044173D01*
X103298390Y-78044173D02*
X103441247Y-78044173D01*
X103441247Y-78044173D02*
X103631723Y-78091792D01*
X103631723Y-78091792D02*
X103726961Y-78139411D01*
X103726961Y-78139411D02*
X103822200Y-78234649D01*
X103822200Y-78234649D02*
X103869819Y-78377506D01*
X103869819Y-78377506D02*
X103869819Y-78615601D01*
X100869819Y-58663220D02*
X99869819Y-58663220D01*
X99869819Y-58663220D02*
X99869819Y-58282268D01*
X99869819Y-58282268D02*
X99917438Y-58187030D01*
X99917438Y-58187030D02*
X99965057Y-58139411D01*
X99965057Y-58139411D02*
X100060295Y-58091792D01*
X100060295Y-58091792D02*
X100203152Y-58091792D01*
X100203152Y-58091792D02*
X100298390Y-58139411D01*
X100298390Y-58139411D02*
X100346009Y-58187030D01*
X100346009Y-58187030D02*
X100393628Y-58282268D01*
X100393628Y-58282268D02*
X100393628Y-58663220D01*
X99869819Y-57758458D02*
X100869819Y-57520363D01*
X100869819Y-57520363D02*
X100155533Y-57329887D01*
X100155533Y-57329887D02*
X100869819Y-57139411D01*
X100869819Y-57139411D02*
X99869819Y-56901316D01*
X100869819Y-56520363D02*
X99869819Y-56520363D01*
X99869819Y-56520363D02*
X100584104Y-56187030D01*
X100584104Y-56187030D02*
X99869819Y-55853697D01*
X99869819Y-55853697D02*
X100869819Y-55853697D01*
X100346009Y-55044173D02*
X100393628Y-54901316D01*
X100393628Y-54901316D02*
X100441247Y-54853697D01*
X100441247Y-54853697D02*
X100536485Y-54806078D01*
X100536485Y-54806078D02*
X100679342Y-54806078D01*
X100679342Y-54806078D02*
X100774580Y-54853697D01*
X100774580Y-54853697D02*
X100822200Y-54901316D01*
X100822200Y-54901316D02*
X100869819Y-54996554D01*
X100869819Y-54996554D02*
X100869819Y-55377506D01*
X100869819Y-55377506D02*
X99869819Y-55377506D01*
X99869819Y-55377506D02*
X99869819Y-55044173D01*
X99869819Y-55044173D02*
X99917438Y-54948935D01*
X99917438Y-54948935D02*
X99965057Y-54901316D01*
X99965057Y-54901316D02*
X100060295Y-54853697D01*
X100060295Y-54853697D02*
X100155533Y-54853697D01*
X100155533Y-54853697D02*
X100250771Y-54901316D01*
X100250771Y-54901316D02*
X100298390Y-54948935D01*
X100298390Y-54948935D02*
X100346009Y-55044173D01*
X100346009Y-55044173D02*
X100346009Y-55377506D01*
X84869819Y-79806077D02*
X85869819Y-79472744D01*
X85869819Y-79472744D02*
X84869819Y-79139411D01*
X85869819Y-78806077D02*
X84869819Y-78806077D01*
X84869819Y-78806077D02*
X85584104Y-78472744D01*
X85584104Y-78472744D02*
X84869819Y-78139411D01*
X84869819Y-78139411D02*
X85869819Y-78139411D01*
X98346009Y-58329887D02*
X98393628Y-58187030D01*
X98393628Y-58187030D02*
X98441247Y-58139411D01*
X98441247Y-58139411D02*
X98536485Y-58091792D01*
X98536485Y-58091792D02*
X98679342Y-58091792D01*
X98679342Y-58091792D02*
X98774580Y-58139411D01*
X98774580Y-58139411D02*
X98822200Y-58187030D01*
X98822200Y-58187030D02*
X98869819Y-58282268D01*
X98869819Y-58282268D02*
X98869819Y-58663220D01*
X98869819Y-58663220D02*
X97869819Y-58663220D01*
X97869819Y-58663220D02*
X97869819Y-58329887D01*
X97869819Y-58329887D02*
X97917438Y-58234649D01*
X97917438Y-58234649D02*
X97965057Y-58187030D01*
X97965057Y-58187030D02*
X98060295Y-58139411D01*
X98060295Y-58139411D02*
X98155533Y-58139411D01*
X98155533Y-58139411D02*
X98250771Y-58187030D01*
X98250771Y-58187030D02*
X98298390Y-58234649D01*
X98298390Y-58234649D02*
X98346009Y-58329887D01*
X98346009Y-58329887D02*
X98346009Y-58663220D01*
X98869819Y-57663220D02*
X97869819Y-57663220D01*
X97965057Y-57234649D02*
X97917438Y-57187030D01*
X97917438Y-57187030D02*
X97869819Y-57091792D01*
X97869819Y-57091792D02*
X97869819Y-56853697D01*
X97869819Y-56853697D02*
X97917438Y-56758459D01*
X97917438Y-56758459D02*
X97965057Y-56710840D01*
X97965057Y-56710840D02*
X98060295Y-56663221D01*
X98060295Y-56663221D02*
X98155533Y-56663221D01*
X98155533Y-56663221D02*
X98298390Y-56710840D01*
X98298390Y-56710840D02*
X98869819Y-57282268D01*
X98869819Y-57282268D02*
X98869819Y-56663221D01*
X89917438Y-80139411D02*
X89869819Y-80234649D01*
X89869819Y-80234649D02*
X89869819Y-80377506D01*
X89869819Y-80377506D02*
X89917438Y-80520363D01*
X89917438Y-80520363D02*
X90012676Y-80615601D01*
X90012676Y-80615601D02*
X90107914Y-80663220D01*
X90107914Y-80663220D02*
X90298390Y-80710839D01*
X90298390Y-80710839D02*
X90441247Y-80710839D01*
X90441247Y-80710839D02*
X90631723Y-80663220D01*
X90631723Y-80663220D02*
X90726961Y-80615601D01*
X90726961Y-80615601D02*
X90822200Y-80520363D01*
X90822200Y-80520363D02*
X90869819Y-80377506D01*
X90869819Y-80377506D02*
X90869819Y-80282268D01*
X90869819Y-80282268D02*
X90822200Y-80139411D01*
X90822200Y-80139411D02*
X90774580Y-80091792D01*
X90774580Y-80091792D02*
X90441247Y-80091792D01*
X90441247Y-80091792D02*
X90441247Y-80282268D01*
X90869819Y-79663220D02*
X89869819Y-79663220D01*
X89869819Y-79663220D02*
X90869819Y-79091792D01*
X90869819Y-79091792D02*
X89869819Y-79091792D01*
X90869819Y-78615601D02*
X89869819Y-78615601D01*
X89869819Y-78615601D02*
X89869819Y-78377506D01*
X89869819Y-78377506D02*
X89917438Y-78234649D01*
X89917438Y-78234649D02*
X90012676Y-78139411D01*
X90012676Y-78139411D02*
X90107914Y-78091792D01*
X90107914Y-78091792D02*
X90298390Y-78044173D01*
X90298390Y-78044173D02*
X90441247Y-78044173D01*
X90441247Y-78044173D02*
X90631723Y-78091792D01*
X90631723Y-78091792D02*
X90726961Y-78139411D01*
X90726961Y-78139411D02*
X90822200Y-78234649D01*
X90822200Y-78234649D02*
X90869819Y-78377506D01*
X90869819Y-78377506D02*
X90869819Y-78615601D01*
X106822200Y-94710839D02*
X106869819Y-94567982D01*
X106869819Y-94567982D02*
X106869819Y-94329887D01*
X106869819Y-94329887D02*
X106822200Y-94234649D01*
X106822200Y-94234649D02*
X106774580Y-94187030D01*
X106774580Y-94187030D02*
X106679342Y-94139411D01*
X106679342Y-94139411D02*
X106584104Y-94139411D01*
X106584104Y-94139411D02*
X106488866Y-94187030D01*
X106488866Y-94187030D02*
X106441247Y-94234649D01*
X106441247Y-94234649D02*
X106393628Y-94329887D01*
X106393628Y-94329887D02*
X106346009Y-94520363D01*
X106346009Y-94520363D02*
X106298390Y-94615601D01*
X106298390Y-94615601D02*
X106250771Y-94663220D01*
X106250771Y-94663220D02*
X106155533Y-94710839D01*
X106155533Y-94710839D02*
X106060295Y-94710839D01*
X106060295Y-94710839D02*
X105965057Y-94663220D01*
X105965057Y-94663220D02*
X105917438Y-94615601D01*
X105917438Y-94615601D02*
X105869819Y-94520363D01*
X105869819Y-94520363D02*
X105869819Y-94282268D01*
X105869819Y-94282268D02*
X105917438Y-94139411D01*
X106822200Y-93329887D02*
X106869819Y-93425125D01*
X106869819Y-93425125D02*
X106869819Y-93615601D01*
X106869819Y-93615601D02*
X106822200Y-93710839D01*
X106822200Y-93710839D02*
X106726961Y-93758458D01*
X106726961Y-93758458D02*
X106346009Y-93758458D01*
X106346009Y-93758458D02*
X106250771Y-93710839D01*
X106250771Y-93710839D02*
X106203152Y-93615601D01*
X106203152Y-93615601D02*
X106203152Y-93425125D01*
X106203152Y-93425125D02*
X106250771Y-93329887D01*
X106250771Y-93329887D02*
X106346009Y-93282268D01*
X106346009Y-93282268D02*
X106441247Y-93282268D01*
X106441247Y-93282268D02*
X106536485Y-93758458D01*
X106869819Y-92853696D02*
X106203152Y-92853696D01*
X106393628Y-92853696D02*
X106298390Y-92806077D01*
X106298390Y-92806077D02*
X106250771Y-92758458D01*
X106250771Y-92758458D02*
X106203152Y-92663220D01*
X106203152Y-92663220D02*
X106203152Y-92567982D01*
X106203152Y-92329886D02*
X106869819Y-92091791D01*
X106869819Y-92091791D02*
X106203152Y-91853696D01*
X106869819Y-91329886D02*
X106822200Y-91425124D01*
X106822200Y-91425124D02*
X106774580Y-91472743D01*
X106774580Y-91472743D02*
X106679342Y-91520362D01*
X106679342Y-91520362D02*
X106393628Y-91520362D01*
X106393628Y-91520362D02*
X106298390Y-91472743D01*
X106298390Y-91472743D02*
X106250771Y-91425124D01*
X106250771Y-91425124D02*
X106203152Y-91329886D01*
X106203152Y-91329886D02*
X106203152Y-91187029D01*
X106203152Y-91187029D02*
X106250771Y-91091791D01*
X106250771Y-91091791D02*
X106298390Y-91044172D01*
X106298390Y-91044172D02*
X106393628Y-90996553D01*
X106393628Y-90996553D02*
X106679342Y-90996553D01*
X106679342Y-90996553D02*
X106774580Y-91044172D01*
X106774580Y-91044172D02*
X106822200Y-91091791D01*
X106822200Y-91091791D02*
X106869819Y-91187029D01*
X106869819Y-91187029D02*
X106869819Y-91329886D01*
X105965057Y-90615600D02*
X105917438Y-90567981D01*
X105917438Y-90567981D02*
X105869819Y-90472743D01*
X105869819Y-90472743D02*
X105869819Y-90234648D01*
X105869819Y-90234648D02*
X105917438Y-90139410D01*
X105917438Y-90139410D02*
X105965057Y-90091791D01*
X105965057Y-90091791D02*
X106060295Y-90044172D01*
X106060295Y-90044172D02*
X106155533Y-90044172D01*
X106155533Y-90044172D02*
X106298390Y-90091791D01*
X106298390Y-90091791D02*
X106869819Y-90663219D01*
X106869819Y-90663219D02*
X106869819Y-90044172D01*
X105869819Y-71663220D02*
X104869819Y-71663220D01*
X105346009Y-71663220D02*
X105346009Y-71091792D01*
X105869819Y-71091792D02*
X104869819Y-71091792D01*
X105488866Y-70615601D02*
X105488866Y-69853697D01*
X105346009Y-69044173D02*
X105393628Y-68901316D01*
X105393628Y-68901316D02*
X105441247Y-68853697D01*
X105441247Y-68853697D02*
X105536485Y-68806078D01*
X105536485Y-68806078D02*
X105679342Y-68806078D01*
X105679342Y-68806078D02*
X105774580Y-68853697D01*
X105774580Y-68853697D02*
X105822200Y-68901316D01*
X105822200Y-68901316D02*
X105869819Y-68996554D01*
X105869819Y-68996554D02*
X105869819Y-69377506D01*
X105869819Y-69377506D02*
X104869819Y-69377506D01*
X104869819Y-69377506D02*
X104869819Y-69044173D01*
X104869819Y-69044173D02*
X104917438Y-68948935D01*
X104917438Y-68948935D02*
X104965057Y-68901316D01*
X104965057Y-68901316D02*
X105060295Y-68853697D01*
X105060295Y-68853697D02*
X105155533Y-68853697D01*
X105155533Y-68853697D02*
X105250771Y-68901316D01*
X105250771Y-68901316D02*
X105298390Y-68948935D01*
X105298390Y-68948935D02*
X105346009Y-69044173D01*
X105346009Y-69044173D02*
X105346009Y-69377506D01*
X105869819Y-68377506D02*
X105203152Y-68377506D01*
X105393628Y-68377506D02*
X105298390Y-68329887D01*
X105298390Y-68329887D02*
X105250771Y-68282268D01*
X105250771Y-68282268D02*
X105203152Y-68187030D01*
X105203152Y-68187030D02*
X105203152Y-68091792D01*
X105869819Y-67758458D02*
X105203152Y-67758458D01*
X104869819Y-67758458D02*
X104917438Y-67806077D01*
X104917438Y-67806077D02*
X104965057Y-67758458D01*
X104965057Y-67758458D02*
X104917438Y-67710839D01*
X104917438Y-67710839D02*
X104869819Y-67758458D01*
X104869819Y-67758458D02*
X104965057Y-67758458D01*
X105869819Y-66853697D02*
X104869819Y-66853697D01*
X105822200Y-66853697D02*
X105869819Y-66948935D01*
X105869819Y-66948935D02*
X105869819Y-67139411D01*
X105869819Y-67139411D02*
X105822200Y-67234649D01*
X105822200Y-67234649D02*
X105774580Y-67282268D01*
X105774580Y-67282268D02*
X105679342Y-67329887D01*
X105679342Y-67329887D02*
X105393628Y-67329887D01*
X105393628Y-67329887D02*
X105298390Y-67282268D01*
X105298390Y-67282268D02*
X105250771Y-67234649D01*
X105250771Y-67234649D02*
X105203152Y-67139411D01*
X105203152Y-67139411D02*
X105203152Y-66948935D01*
X105203152Y-66948935D02*
X105250771Y-66853697D01*
X105203152Y-65948935D02*
X106012676Y-65948935D01*
X106012676Y-65948935D02*
X106107914Y-65996554D01*
X106107914Y-65996554D02*
X106155533Y-66044173D01*
X106155533Y-66044173D02*
X106203152Y-66139411D01*
X106203152Y-66139411D02*
X106203152Y-66282268D01*
X106203152Y-66282268D02*
X106155533Y-66377506D01*
X105822200Y-65948935D02*
X105869819Y-66044173D01*
X105869819Y-66044173D02*
X105869819Y-66234649D01*
X105869819Y-66234649D02*
X105822200Y-66329887D01*
X105822200Y-66329887D02*
X105774580Y-66377506D01*
X105774580Y-66377506D02*
X105679342Y-66425125D01*
X105679342Y-66425125D02*
X105393628Y-66425125D01*
X105393628Y-66425125D02*
X105298390Y-66377506D01*
X105298390Y-66377506D02*
X105250771Y-66329887D01*
X105250771Y-66329887D02*
X105203152Y-66234649D01*
X105203152Y-66234649D02*
X105203152Y-66044173D01*
X105203152Y-66044173D02*
X105250771Y-65948935D01*
X105822200Y-65091792D02*
X105869819Y-65187030D01*
X105869819Y-65187030D02*
X105869819Y-65377506D01*
X105869819Y-65377506D02*
X105822200Y-65472744D01*
X105822200Y-65472744D02*
X105726961Y-65520363D01*
X105726961Y-65520363D02*
X105346009Y-65520363D01*
X105346009Y-65520363D02*
X105250771Y-65472744D01*
X105250771Y-65472744D02*
X105203152Y-65377506D01*
X105203152Y-65377506D02*
X105203152Y-65187030D01*
X105203152Y-65187030D02*
X105250771Y-65091792D01*
X105250771Y-65091792D02*
X105346009Y-65044173D01*
X105346009Y-65044173D02*
X105441247Y-65044173D01*
X105441247Y-65044173D02*
X105536485Y-65520363D01*
X101346009Y-80329887D02*
X101393628Y-80187030D01*
X101393628Y-80187030D02*
X101441247Y-80139411D01*
X101441247Y-80139411D02*
X101536485Y-80091792D01*
X101536485Y-80091792D02*
X101679342Y-80091792D01*
X101679342Y-80091792D02*
X101774580Y-80139411D01*
X101774580Y-80139411D02*
X101822200Y-80187030D01*
X101822200Y-80187030D02*
X101869819Y-80282268D01*
X101869819Y-80282268D02*
X101869819Y-80663220D01*
X101869819Y-80663220D02*
X100869819Y-80663220D01*
X100869819Y-80663220D02*
X100869819Y-80329887D01*
X100869819Y-80329887D02*
X100917438Y-80234649D01*
X100917438Y-80234649D02*
X100965057Y-80187030D01*
X100965057Y-80187030D02*
X101060295Y-80139411D01*
X101060295Y-80139411D02*
X101155533Y-80139411D01*
X101155533Y-80139411D02*
X101250771Y-80187030D01*
X101250771Y-80187030D02*
X101298390Y-80234649D01*
X101298390Y-80234649D02*
X101346009Y-80329887D01*
X101346009Y-80329887D02*
X101346009Y-80663220D01*
X100869819Y-79472744D02*
X100869819Y-79377506D01*
X100869819Y-79377506D02*
X100917438Y-79282268D01*
X100917438Y-79282268D02*
X100965057Y-79234649D01*
X100965057Y-79234649D02*
X101060295Y-79187030D01*
X101060295Y-79187030D02*
X101250771Y-79139411D01*
X101250771Y-79139411D02*
X101488866Y-79139411D01*
X101488866Y-79139411D02*
X101679342Y-79187030D01*
X101679342Y-79187030D02*
X101774580Y-79234649D01*
X101774580Y-79234649D02*
X101822200Y-79282268D01*
X101822200Y-79282268D02*
X101869819Y-79377506D01*
X101869819Y-79377506D02*
X101869819Y-79472744D01*
X101869819Y-79472744D02*
X101822200Y-79567982D01*
X101822200Y-79567982D02*
X101774580Y-79615601D01*
X101774580Y-79615601D02*
X101679342Y-79663220D01*
X101679342Y-79663220D02*
X101488866Y-79710839D01*
X101488866Y-79710839D02*
X101250771Y-79710839D01*
X101250771Y-79710839D02*
X101060295Y-79663220D01*
X101060295Y-79663220D02*
X100965057Y-79615601D01*
X100965057Y-79615601D02*
X100917438Y-79567982D01*
X100917438Y-79567982D02*
X100869819Y-79472744D01*
X101869819Y-78187030D02*
X101869819Y-78758458D01*
X101869819Y-78472744D02*
X100869819Y-78472744D01*
X100869819Y-78472744D02*
X101012676Y-78567982D01*
X101012676Y-78567982D02*
X101107914Y-78663220D01*
X101107914Y-78663220D02*
X101155533Y-78758458D01*
X80869819Y-64663220D02*
X79869819Y-64663220D01*
X79869819Y-64663220D02*
X80584104Y-64329887D01*
X80584104Y-64329887D02*
X79869819Y-63996554D01*
X79869819Y-63996554D02*
X80869819Y-63996554D01*
X79869819Y-63329887D02*
X79869819Y-63139411D01*
X79869819Y-63139411D02*
X79917438Y-63044173D01*
X79917438Y-63044173D02*
X80012676Y-62948935D01*
X80012676Y-62948935D02*
X80203152Y-62901316D01*
X80203152Y-62901316D02*
X80536485Y-62901316D01*
X80536485Y-62901316D02*
X80726961Y-62948935D01*
X80726961Y-62948935D02*
X80822200Y-63044173D01*
X80822200Y-63044173D02*
X80869819Y-63139411D01*
X80869819Y-63139411D02*
X80869819Y-63329887D01*
X80869819Y-63329887D02*
X80822200Y-63425125D01*
X80822200Y-63425125D02*
X80726961Y-63520363D01*
X80726961Y-63520363D02*
X80536485Y-63567982D01*
X80536485Y-63567982D02*
X80203152Y-63567982D01*
X80203152Y-63567982D02*
X80012676Y-63520363D01*
X80012676Y-63520363D02*
X79917438Y-63425125D01*
X79917438Y-63425125D02*
X79869819Y-63329887D01*
X79869819Y-62615601D02*
X79869819Y-62044173D01*
X80869819Y-62329887D02*
X79869819Y-62329887D01*
X79869819Y-61520363D02*
X79869819Y-61329887D01*
X79869819Y-61329887D02*
X79917438Y-61234649D01*
X79917438Y-61234649D02*
X80012676Y-61139411D01*
X80012676Y-61139411D02*
X80203152Y-61091792D01*
X80203152Y-61091792D02*
X80536485Y-61091792D01*
X80536485Y-61091792D02*
X80726961Y-61139411D01*
X80726961Y-61139411D02*
X80822200Y-61234649D01*
X80822200Y-61234649D02*
X80869819Y-61329887D01*
X80869819Y-61329887D02*
X80869819Y-61520363D01*
X80869819Y-61520363D02*
X80822200Y-61615601D01*
X80822200Y-61615601D02*
X80726961Y-61710839D01*
X80726961Y-61710839D02*
X80536485Y-61758458D01*
X80536485Y-61758458D02*
X80203152Y-61758458D01*
X80203152Y-61758458D02*
X80012676Y-61710839D01*
X80012676Y-61710839D02*
X79917438Y-61615601D01*
X79917438Y-61615601D02*
X79869819Y-61520363D01*
X80869819Y-60091792D02*
X80393628Y-60425125D01*
X80869819Y-60663220D02*
X79869819Y-60663220D01*
X79869819Y-60663220D02*
X79869819Y-60282268D01*
X79869819Y-60282268D02*
X79917438Y-60187030D01*
X79917438Y-60187030D02*
X79965057Y-60139411D01*
X79965057Y-60139411D02*
X80060295Y-60091792D01*
X80060295Y-60091792D02*
X80203152Y-60091792D01*
X80203152Y-60091792D02*
X80298390Y-60139411D01*
X80298390Y-60139411D02*
X80346009Y-60187030D01*
X80346009Y-60187030D02*
X80393628Y-60282268D01*
X80393628Y-60282268D02*
X80393628Y-60663220D01*
X80584104Y-58948934D02*
X80584104Y-58472744D01*
X80869819Y-59044172D02*
X79869819Y-58710839D01*
X79869819Y-58710839D02*
X80869819Y-58377506D01*
X91822200Y-95710839D02*
X91869819Y-95567982D01*
X91869819Y-95567982D02*
X91869819Y-95329887D01*
X91869819Y-95329887D02*
X91822200Y-95234649D01*
X91822200Y-95234649D02*
X91774580Y-95187030D01*
X91774580Y-95187030D02*
X91679342Y-95139411D01*
X91679342Y-95139411D02*
X91584104Y-95139411D01*
X91584104Y-95139411D02*
X91488866Y-95187030D01*
X91488866Y-95187030D02*
X91441247Y-95234649D01*
X91441247Y-95234649D02*
X91393628Y-95329887D01*
X91393628Y-95329887D02*
X91346009Y-95520363D01*
X91346009Y-95520363D02*
X91298390Y-95615601D01*
X91298390Y-95615601D02*
X91250771Y-95663220D01*
X91250771Y-95663220D02*
X91155533Y-95710839D01*
X91155533Y-95710839D02*
X91060295Y-95710839D01*
X91060295Y-95710839D02*
X90965057Y-95663220D01*
X90965057Y-95663220D02*
X90917438Y-95615601D01*
X90917438Y-95615601D02*
X90869819Y-95520363D01*
X90869819Y-95520363D02*
X90869819Y-95282268D01*
X90869819Y-95282268D02*
X90917438Y-95139411D01*
X91822200Y-94329887D02*
X91869819Y-94425125D01*
X91869819Y-94425125D02*
X91869819Y-94615601D01*
X91869819Y-94615601D02*
X91822200Y-94710839D01*
X91822200Y-94710839D02*
X91726961Y-94758458D01*
X91726961Y-94758458D02*
X91346009Y-94758458D01*
X91346009Y-94758458D02*
X91250771Y-94710839D01*
X91250771Y-94710839D02*
X91203152Y-94615601D01*
X91203152Y-94615601D02*
X91203152Y-94425125D01*
X91203152Y-94425125D02*
X91250771Y-94329887D01*
X91250771Y-94329887D02*
X91346009Y-94282268D01*
X91346009Y-94282268D02*
X91441247Y-94282268D01*
X91441247Y-94282268D02*
X91536485Y-94758458D01*
X91869819Y-93853696D02*
X91203152Y-93853696D01*
X91393628Y-93853696D02*
X91298390Y-93806077D01*
X91298390Y-93806077D02*
X91250771Y-93758458D01*
X91250771Y-93758458D02*
X91203152Y-93663220D01*
X91203152Y-93663220D02*
X91203152Y-93567982D01*
X91203152Y-93329886D02*
X91869819Y-93091791D01*
X91869819Y-93091791D02*
X91203152Y-92853696D01*
X91869819Y-92329886D02*
X91822200Y-92425124D01*
X91822200Y-92425124D02*
X91774580Y-92472743D01*
X91774580Y-92472743D02*
X91679342Y-92520362D01*
X91679342Y-92520362D02*
X91393628Y-92520362D01*
X91393628Y-92520362D02*
X91298390Y-92472743D01*
X91298390Y-92472743D02*
X91250771Y-92425124D01*
X91250771Y-92425124D02*
X91203152Y-92329886D01*
X91203152Y-92329886D02*
X91203152Y-92187029D01*
X91203152Y-92187029D02*
X91250771Y-92091791D01*
X91250771Y-92091791D02*
X91298390Y-92044172D01*
X91298390Y-92044172D02*
X91393628Y-91996553D01*
X91393628Y-91996553D02*
X91679342Y-91996553D01*
X91679342Y-91996553D02*
X91774580Y-92044172D01*
X91774580Y-92044172D02*
X91822200Y-92091791D01*
X91822200Y-92091791D02*
X91869819Y-92187029D01*
X91869819Y-92187029D02*
X91869819Y-92329886D01*
X91869819Y-91044172D02*
X91869819Y-91615600D01*
X91869819Y-91329886D02*
X90869819Y-91329886D01*
X90869819Y-91329886D02*
X91012676Y-91425124D01*
X91012676Y-91425124D02*
X91107914Y-91520362D01*
X91107914Y-91520362D02*
X91155533Y-91615600D01*
X87869819Y-80806077D02*
X88869819Y-80472744D01*
X88869819Y-80472744D02*
X87869819Y-80139411D01*
X88774580Y-79234649D02*
X88822200Y-79282268D01*
X88822200Y-79282268D02*
X88869819Y-79425125D01*
X88869819Y-79425125D02*
X88869819Y-79520363D01*
X88869819Y-79520363D02*
X88822200Y-79663220D01*
X88822200Y-79663220D02*
X88726961Y-79758458D01*
X88726961Y-79758458D02*
X88631723Y-79806077D01*
X88631723Y-79806077D02*
X88441247Y-79853696D01*
X88441247Y-79853696D02*
X88298390Y-79853696D01*
X88298390Y-79853696D02*
X88107914Y-79806077D01*
X88107914Y-79806077D02*
X88012676Y-79758458D01*
X88012676Y-79758458D02*
X87917438Y-79663220D01*
X87917438Y-79663220D02*
X87869819Y-79520363D01*
X87869819Y-79520363D02*
X87869819Y-79425125D01*
X87869819Y-79425125D02*
X87917438Y-79282268D01*
X87917438Y-79282268D02*
X87965057Y-79234649D01*
X88774580Y-78234649D02*
X88822200Y-78282268D01*
X88822200Y-78282268D02*
X88869819Y-78425125D01*
X88869819Y-78425125D02*
X88869819Y-78520363D01*
X88869819Y-78520363D02*
X88822200Y-78663220D01*
X88822200Y-78663220D02*
X88726961Y-78758458D01*
X88726961Y-78758458D02*
X88631723Y-78806077D01*
X88631723Y-78806077D02*
X88441247Y-78853696D01*
X88441247Y-78853696D02*
X88298390Y-78853696D01*
X88298390Y-78853696D02*
X88107914Y-78806077D01*
X88107914Y-78806077D02*
X88012676Y-78758458D01*
X88012676Y-78758458D02*
X87917438Y-78663220D01*
X87917438Y-78663220D02*
X87869819Y-78520363D01*
X87869819Y-78520363D02*
X87869819Y-78425125D01*
X87869819Y-78425125D02*
X87917438Y-78282268D01*
X87917438Y-78282268D02*
X87965057Y-78234649D01*
X87584104Y-58710839D02*
X87584104Y-58234649D01*
X87869819Y-58806077D02*
X86869819Y-58472744D01*
X86869819Y-58472744D02*
X87869819Y-58139411D01*
X87869819Y-57806077D02*
X86869819Y-57806077D01*
X86965057Y-57377506D02*
X86917438Y-57329887D01*
X86917438Y-57329887D02*
X86869819Y-57234649D01*
X86869819Y-57234649D02*
X86869819Y-56996554D01*
X86869819Y-56996554D02*
X86917438Y-56901316D01*
X86917438Y-56901316D02*
X86965057Y-56853697D01*
X86965057Y-56853697D02*
X87060295Y-56806078D01*
X87060295Y-56806078D02*
X87155533Y-56806078D01*
X87155533Y-56806078D02*
X87298390Y-56853697D01*
X87298390Y-56853697D02*
X87869819Y-57425125D01*
X87869819Y-57425125D02*
X87869819Y-56806078D01*
X76289160Y-60584104D02*
X76765350Y-60584104D01*
X76193922Y-60869819D02*
X76527255Y-59869819D01*
X76527255Y-59869819D02*
X76860588Y-60869819D01*
X77384398Y-59869819D02*
X77479636Y-59869819D01*
X77479636Y-59869819D02*
X77574874Y-59917438D01*
X77574874Y-59917438D02*
X77622493Y-59965057D01*
X77622493Y-59965057D02*
X77670112Y-60060295D01*
X77670112Y-60060295D02*
X77717731Y-60250771D01*
X77717731Y-60250771D02*
X77717731Y-60488866D01*
X77717731Y-60488866D02*
X77670112Y-60679342D01*
X77670112Y-60679342D02*
X77622493Y-60774580D01*
X77622493Y-60774580D02*
X77574874Y-60822200D01*
X77574874Y-60822200D02*
X77479636Y-60869819D01*
X77479636Y-60869819D02*
X77384398Y-60869819D01*
X77384398Y-60869819D02*
X77289160Y-60822200D01*
X77289160Y-60822200D02*
X77241541Y-60774580D01*
X77241541Y-60774580D02*
X77193922Y-60679342D01*
X77193922Y-60679342D02*
X77146303Y-60488866D01*
X77146303Y-60488866D02*
X77146303Y-60250771D01*
X77146303Y-60250771D02*
X77193922Y-60060295D01*
X77193922Y-60060295D02*
X77241541Y-59965057D01*
X77241541Y-59965057D02*
X77289160Y-59917438D01*
X77289160Y-59917438D02*
X77384398Y-59869819D01*
X78098684Y-59965057D02*
X78146303Y-59917438D01*
X78146303Y-59917438D02*
X78241541Y-59869819D01*
X78241541Y-59869819D02*
X78479636Y-59869819D01*
X78479636Y-59869819D02*
X78574874Y-59917438D01*
X78574874Y-59917438D02*
X78622493Y-59965057D01*
X78622493Y-59965057D02*
X78670112Y-60060295D01*
X78670112Y-60060295D02*
X78670112Y-60155533D01*
X78670112Y-60155533D02*
X78622493Y-60298390D01*
X78622493Y-60298390D02*
X78051065Y-60869819D01*
X78051065Y-60869819D02*
X78670112Y-60869819D01*
X93822200Y-58710839D02*
X93869819Y-58567982D01*
X93869819Y-58567982D02*
X93869819Y-58329887D01*
X93869819Y-58329887D02*
X93822200Y-58234649D01*
X93822200Y-58234649D02*
X93774580Y-58187030D01*
X93774580Y-58187030D02*
X93679342Y-58139411D01*
X93679342Y-58139411D02*
X93584104Y-58139411D01*
X93584104Y-58139411D02*
X93488866Y-58187030D01*
X93488866Y-58187030D02*
X93441247Y-58234649D01*
X93441247Y-58234649D02*
X93393628Y-58329887D01*
X93393628Y-58329887D02*
X93346009Y-58520363D01*
X93346009Y-58520363D02*
X93298390Y-58615601D01*
X93298390Y-58615601D02*
X93250771Y-58663220D01*
X93250771Y-58663220D02*
X93155533Y-58710839D01*
X93155533Y-58710839D02*
X93060295Y-58710839D01*
X93060295Y-58710839D02*
X92965057Y-58663220D01*
X92965057Y-58663220D02*
X92917438Y-58615601D01*
X92917438Y-58615601D02*
X92869819Y-58520363D01*
X92869819Y-58520363D02*
X92869819Y-58282268D01*
X92869819Y-58282268D02*
X92917438Y-58139411D01*
X92869819Y-57853696D02*
X92869819Y-57282268D01*
X93869819Y-57567982D02*
X92869819Y-57567982D01*
X93346009Y-56615601D02*
X93393628Y-56472744D01*
X93393628Y-56472744D02*
X93441247Y-56425125D01*
X93441247Y-56425125D02*
X93536485Y-56377506D01*
X93536485Y-56377506D02*
X93679342Y-56377506D01*
X93679342Y-56377506D02*
X93774580Y-56425125D01*
X93774580Y-56425125D02*
X93822200Y-56472744D01*
X93822200Y-56472744D02*
X93869819Y-56567982D01*
X93869819Y-56567982D02*
X93869819Y-56948934D01*
X93869819Y-56948934D02*
X92869819Y-56948934D01*
X92869819Y-56948934D02*
X92869819Y-56615601D01*
X92869819Y-56615601D02*
X92917438Y-56520363D01*
X92917438Y-56520363D02*
X92965057Y-56472744D01*
X92965057Y-56472744D02*
X93060295Y-56425125D01*
X93060295Y-56425125D02*
X93155533Y-56425125D01*
X93155533Y-56425125D02*
X93250771Y-56472744D01*
X93250771Y-56472744D02*
X93298390Y-56520363D01*
X93298390Y-56520363D02*
X93346009Y-56615601D01*
X93346009Y-56615601D02*
X93346009Y-56948934D01*
X93393628Y-55758458D02*
X93869819Y-55758458D01*
X92869819Y-56091791D02*
X93393628Y-55758458D01*
X93393628Y-55758458D02*
X92869819Y-55425125D01*
X95584104Y-80710839D02*
X95584104Y-80234649D01*
X95869819Y-80806077D02*
X94869819Y-80472744D01*
X94869819Y-80472744D02*
X95869819Y-80139411D01*
X94869819Y-79615601D02*
X94869819Y-79520363D01*
X94869819Y-79520363D02*
X94917438Y-79425125D01*
X94917438Y-79425125D02*
X94965057Y-79377506D01*
X94965057Y-79377506D02*
X95060295Y-79329887D01*
X95060295Y-79329887D02*
X95250771Y-79282268D01*
X95250771Y-79282268D02*
X95488866Y-79282268D01*
X95488866Y-79282268D02*
X95679342Y-79329887D01*
X95679342Y-79329887D02*
X95774580Y-79377506D01*
X95774580Y-79377506D02*
X95822200Y-79425125D01*
X95822200Y-79425125D02*
X95869819Y-79520363D01*
X95869819Y-79520363D02*
X95869819Y-79615601D01*
X95869819Y-79615601D02*
X95822200Y-79710839D01*
X95822200Y-79710839D02*
X95774580Y-79758458D01*
X95774580Y-79758458D02*
X95679342Y-79806077D01*
X95679342Y-79806077D02*
X95488866Y-79853696D01*
X95488866Y-79853696D02*
X95250771Y-79853696D01*
X95250771Y-79853696D02*
X95060295Y-79806077D01*
X95060295Y-79806077D02*
X94965057Y-79758458D01*
X94965057Y-79758458D02*
X94917438Y-79710839D01*
X94917438Y-79710839D02*
X94869819Y-79615601D01*
X94965057Y-78901315D02*
X94917438Y-78853696D01*
X94917438Y-78853696D02*
X94869819Y-78758458D01*
X94869819Y-78758458D02*
X94869819Y-78520363D01*
X94869819Y-78520363D02*
X94917438Y-78425125D01*
X94917438Y-78425125D02*
X94965057Y-78377506D01*
X94965057Y-78377506D02*
X95060295Y-78329887D01*
X95060295Y-78329887D02*
X95155533Y-78329887D01*
X95155533Y-78329887D02*
X95298390Y-78377506D01*
X95298390Y-78377506D02*
X95869819Y-78948934D01*
X95869819Y-78948934D02*
X95869819Y-78329887D01*
X76289160Y-63584104D02*
X76765350Y-63584104D01*
X76193922Y-63869819D02*
X76527255Y-62869819D01*
X76527255Y-62869819D02*
X76860588Y-63869819D01*
X77384398Y-62869819D02*
X77479636Y-62869819D01*
X77479636Y-62869819D02*
X77574874Y-62917438D01*
X77574874Y-62917438D02*
X77622493Y-62965057D01*
X77622493Y-62965057D02*
X77670112Y-63060295D01*
X77670112Y-63060295D02*
X77717731Y-63250771D01*
X77717731Y-63250771D02*
X77717731Y-63488866D01*
X77717731Y-63488866D02*
X77670112Y-63679342D01*
X77670112Y-63679342D02*
X77622493Y-63774580D01*
X77622493Y-63774580D02*
X77574874Y-63822200D01*
X77574874Y-63822200D02*
X77479636Y-63869819D01*
X77479636Y-63869819D02*
X77384398Y-63869819D01*
X77384398Y-63869819D02*
X77289160Y-63822200D01*
X77289160Y-63822200D02*
X77241541Y-63774580D01*
X77241541Y-63774580D02*
X77193922Y-63679342D01*
X77193922Y-63679342D02*
X77146303Y-63488866D01*
X77146303Y-63488866D02*
X77146303Y-63250771D01*
X77146303Y-63250771D02*
X77193922Y-63060295D01*
X77193922Y-63060295D02*
X77241541Y-62965057D01*
X77241541Y-62965057D02*
X77289160Y-62917438D01*
X77289160Y-62917438D02*
X77384398Y-62869819D01*
X78670112Y-63869819D02*
X78098684Y-63869819D01*
X78384398Y-63869819D02*
X78384398Y-62869819D01*
X78384398Y-62869819D02*
X78289160Y-63012676D01*
X78289160Y-63012676D02*
X78193922Y-63107914D01*
X78193922Y-63107914D02*
X78098684Y-63155533D01*
X93584104Y-80710839D02*
X93584104Y-80234649D01*
X93869819Y-80806077D02*
X92869819Y-80472744D01*
X92869819Y-80472744D02*
X93869819Y-80139411D01*
X92869819Y-79615601D02*
X92869819Y-79520363D01*
X92869819Y-79520363D02*
X92917438Y-79425125D01*
X92917438Y-79425125D02*
X92965057Y-79377506D01*
X92965057Y-79377506D02*
X93060295Y-79329887D01*
X93060295Y-79329887D02*
X93250771Y-79282268D01*
X93250771Y-79282268D02*
X93488866Y-79282268D01*
X93488866Y-79282268D02*
X93679342Y-79329887D01*
X93679342Y-79329887D02*
X93774580Y-79377506D01*
X93774580Y-79377506D02*
X93822200Y-79425125D01*
X93822200Y-79425125D02*
X93869819Y-79520363D01*
X93869819Y-79520363D02*
X93869819Y-79615601D01*
X93869819Y-79615601D02*
X93822200Y-79710839D01*
X93822200Y-79710839D02*
X93774580Y-79758458D01*
X93774580Y-79758458D02*
X93679342Y-79806077D01*
X93679342Y-79806077D02*
X93488866Y-79853696D01*
X93488866Y-79853696D02*
X93250771Y-79853696D01*
X93250771Y-79853696D02*
X93060295Y-79806077D01*
X93060295Y-79806077D02*
X92965057Y-79758458D01*
X92965057Y-79758458D02*
X92917438Y-79710839D01*
X92917438Y-79710839D02*
X92869819Y-79615601D01*
X93869819Y-78329887D02*
X93869819Y-78901315D01*
X93869819Y-78615601D02*
X92869819Y-78615601D01*
X92869819Y-78615601D02*
X93012676Y-78710839D01*
X93012676Y-78710839D02*
X93107914Y-78806077D01*
X93107914Y-78806077D02*
X93155533Y-78901315D01*
X85869819Y-58663220D02*
X84869819Y-58663220D01*
X84869819Y-58663220D02*
X84869819Y-58282268D01*
X84869819Y-58282268D02*
X84917438Y-58187030D01*
X84917438Y-58187030D02*
X84965057Y-58139411D01*
X84965057Y-58139411D02*
X85060295Y-58091792D01*
X85060295Y-58091792D02*
X85203152Y-58091792D01*
X85203152Y-58091792D02*
X85298390Y-58139411D01*
X85298390Y-58139411D02*
X85346009Y-58187030D01*
X85346009Y-58187030D02*
X85393628Y-58282268D01*
X85393628Y-58282268D02*
X85393628Y-58663220D01*
X84869819Y-57758458D02*
X85869819Y-57520363D01*
X85869819Y-57520363D02*
X85155533Y-57329887D01*
X85155533Y-57329887D02*
X85869819Y-57139411D01*
X85869819Y-57139411D02*
X84869819Y-56901316D01*
X85869819Y-56520363D02*
X84869819Y-56520363D01*
X84869819Y-56520363D02*
X85584104Y-56187030D01*
X85584104Y-56187030D02*
X84869819Y-55853697D01*
X84869819Y-55853697D02*
X85869819Y-55853697D01*
X85584104Y-55425125D02*
X85584104Y-54948935D01*
X85869819Y-55520363D02*
X84869819Y-55187030D01*
X84869819Y-55187030D02*
X85869819Y-54853697D01*
X76670112Y-91346009D02*
X76812969Y-91393628D01*
X76812969Y-91393628D02*
X76860588Y-91441247D01*
X76860588Y-91441247D02*
X76908207Y-91536485D01*
X76908207Y-91536485D02*
X76908207Y-91679342D01*
X76908207Y-91679342D02*
X76860588Y-91774580D01*
X76860588Y-91774580D02*
X76812969Y-91822200D01*
X76812969Y-91822200D02*
X76717731Y-91869819D01*
X76717731Y-91869819D02*
X76336779Y-91869819D01*
X76336779Y-91869819D02*
X76336779Y-90869819D01*
X76336779Y-90869819D02*
X76670112Y-90869819D01*
X76670112Y-90869819D02*
X76765350Y-90917438D01*
X76765350Y-90917438D02*
X76812969Y-90965057D01*
X76812969Y-90965057D02*
X76860588Y-91060295D01*
X76860588Y-91060295D02*
X76860588Y-91155533D01*
X76860588Y-91155533D02*
X76812969Y-91250771D01*
X76812969Y-91250771D02*
X76765350Y-91298390D01*
X76765350Y-91298390D02*
X76670112Y-91346009D01*
X76670112Y-91346009D02*
X76336779Y-91346009D01*
X77527255Y-90869819D02*
X77622493Y-90869819D01*
X77622493Y-90869819D02*
X77717731Y-90917438D01*
X77717731Y-90917438D02*
X77765350Y-90965057D01*
X77765350Y-90965057D02*
X77812969Y-91060295D01*
X77812969Y-91060295D02*
X77860588Y-91250771D01*
X77860588Y-91250771D02*
X77860588Y-91488866D01*
X77860588Y-91488866D02*
X77812969Y-91679342D01*
X77812969Y-91679342D02*
X77765350Y-91774580D01*
X77765350Y-91774580D02*
X77717731Y-91822200D01*
X77717731Y-91822200D02*
X77622493Y-91869819D01*
X77622493Y-91869819D02*
X77527255Y-91869819D01*
X77527255Y-91869819D02*
X77432017Y-91822200D01*
X77432017Y-91822200D02*
X77384398Y-91774580D01*
X77384398Y-91774580D02*
X77336779Y-91679342D01*
X77336779Y-91679342D02*
X77289160Y-91488866D01*
X77289160Y-91488866D02*
X77289160Y-91250771D01*
X77289160Y-91250771D02*
X77336779Y-91060295D01*
X77336779Y-91060295D02*
X77384398Y-90965057D01*
X77384398Y-90965057D02*
X77432017Y-90917438D01*
X77432017Y-90917438D02*
X77527255Y-90869819D01*
X78812969Y-91869819D02*
X78241541Y-91869819D01*
X78527255Y-91869819D02*
X78527255Y-90869819D01*
X78527255Y-90869819D02*
X78432017Y-91012676D01*
X78432017Y-91012676D02*
X78336779Y-91107914D01*
X78336779Y-91107914D02*
X78241541Y-91155533D01*
X80869819Y-92663220D02*
X79869819Y-92663220D01*
X79869819Y-92663220D02*
X80584104Y-92329887D01*
X80584104Y-92329887D02*
X79869819Y-91996554D01*
X79869819Y-91996554D02*
X80869819Y-91996554D01*
X79869819Y-91329887D02*
X79869819Y-91139411D01*
X79869819Y-91139411D02*
X79917438Y-91044173D01*
X79917438Y-91044173D02*
X80012676Y-90948935D01*
X80012676Y-90948935D02*
X80203152Y-90901316D01*
X80203152Y-90901316D02*
X80536485Y-90901316D01*
X80536485Y-90901316D02*
X80726961Y-90948935D01*
X80726961Y-90948935D02*
X80822200Y-91044173D01*
X80822200Y-91044173D02*
X80869819Y-91139411D01*
X80869819Y-91139411D02*
X80869819Y-91329887D01*
X80869819Y-91329887D02*
X80822200Y-91425125D01*
X80822200Y-91425125D02*
X80726961Y-91520363D01*
X80726961Y-91520363D02*
X80536485Y-91567982D01*
X80536485Y-91567982D02*
X80203152Y-91567982D01*
X80203152Y-91567982D02*
X80012676Y-91520363D01*
X80012676Y-91520363D02*
X79917438Y-91425125D01*
X79917438Y-91425125D02*
X79869819Y-91329887D01*
X79869819Y-90615601D02*
X79869819Y-90044173D01*
X80869819Y-90329887D02*
X79869819Y-90329887D01*
X79869819Y-89520363D02*
X79869819Y-89329887D01*
X79869819Y-89329887D02*
X79917438Y-89234649D01*
X79917438Y-89234649D02*
X80012676Y-89139411D01*
X80012676Y-89139411D02*
X80203152Y-89091792D01*
X80203152Y-89091792D02*
X80536485Y-89091792D01*
X80536485Y-89091792D02*
X80726961Y-89139411D01*
X80726961Y-89139411D02*
X80822200Y-89234649D01*
X80822200Y-89234649D02*
X80869819Y-89329887D01*
X80869819Y-89329887D02*
X80869819Y-89520363D01*
X80869819Y-89520363D02*
X80822200Y-89615601D01*
X80822200Y-89615601D02*
X80726961Y-89710839D01*
X80726961Y-89710839D02*
X80536485Y-89758458D01*
X80536485Y-89758458D02*
X80203152Y-89758458D01*
X80203152Y-89758458D02*
X80012676Y-89710839D01*
X80012676Y-89710839D02*
X79917438Y-89615601D01*
X79917438Y-89615601D02*
X79869819Y-89520363D01*
X80869819Y-88091792D02*
X80393628Y-88425125D01*
X80869819Y-88663220D02*
X79869819Y-88663220D01*
X79869819Y-88663220D02*
X79869819Y-88282268D01*
X79869819Y-88282268D02*
X79917438Y-88187030D01*
X79917438Y-88187030D02*
X79965057Y-88139411D01*
X79965057Y-88139411D02*
X80060295Y-88091792D01*
X80060295Y-88091792D02*
X80203152Y-88091792D01*
X80203152Y-88091792D02*
X80298390Y-88139411D01*
X80298390Y-88139411D02*
X80346009Y-88187030D01*
X80346009Y-88187030D02*
X80393628Y-88282268D01*
X80393628Y-88282268D02*
X80393628Y-88663220D01*
X80346009Y-86567982D02*
X80393628Y-86425125D01*
X80393628Y-86425125D02*
X80441247Y-86377506D01*
X80441247Y-86377506D02*
X80536485Y-86329887D01*
X80536485Y-86329887D02*
X80679342Y-86329887D01*
X80679342Y-86329887D02*
X80774580Y-86377506D01*
X80774580Y-86377506D02*
X80822200Y-86425125D01*
X80822200Y-86425125D02*
X80869819Y-86520363D01*
X80869819Y-86520363D02*
X80869819Y-86901315D01*
X80869819Y-86901315D02*
X79869819Y-86901315D01*
X79869819Y-86901315D02*
X79869819Y-86567982D01*
X79869819Y-86567982D02*
X79917438Y-86472744D01*
X79917438Y-86472744D02*
X79965057Y-86425125D01*
X79965057Y-86425125D02*
X80060295Y-86377506D01*
X80060295Y-86377506D02*
X80155533Y-86377506D01*
X80155533Y-86377506D02*
X80250771Y-86425125D01*
X80250771Y-86425125D02*
X80298390Y-86472744D01*
X80298390Y-86472744D02*
X80346009Y-86567982D01*
X80346009Y-86567982D02*
X80346009Y-86901315D01*
X95346009Y-58329887D02*
X95393628Y-58187030D01*
X95393628Y-58187030D02*
X95441247Y-58139411D01*
X95441247Y-58139411D02*
X95536485Y-58091792D01*
X95536485Y-58091792D02*
X95679342Y-58091792D01*
X95679342Y-58091792D02*
X95774580Y-58139411D01*
X95774580Y-58139411D02*
X95822200Y-58187030D01*
X95822200Y-58187030D02*
X95869819Y-58282268D01*
X95869819Y-58282268D02*
X95869819Y-58663220D01*
X95869819Y-58663220D02*
X94869819Y-58663220D01*
X94869819Y-58663220D02*
X94869819Y-58329887D01*
X94869819Y-58329887D02*
X94917438Y-58234649D01*
X94917438Y-58234649D02*
X94965057Y-58187030D01*
X94965057Y-58187030D02*
X95060295Y-58139411D01*
X95060295Y-58139411D02*
X95155533Y-58139411D01*
X95155533Y-58139411D02*
X95250771Y-58187030D01*
X95250771Y-58187030D02*
X95298390Y-58234649D01*
X95298390Y-58234649D02*
X95346009Y-58329887D01*
X95346009Y-58329887D02*
X95346009Y-58663220D01*
X95869819Y-57663220D02*
X94869819Y-57663220D01*
X95869819Y-56663221D02*
X95869819Y-57234649D01*
X95869819Y-56948935D02*
X94869819Y-56948935D01*
X94869819Y-56948935D02*
X95012676Y-57044173D01*
X95012676Y-57044173D02*
X95107914Y-57139411D01*
X95107914Y-57139411D02*
X95155533Y-57234649D01*
X98346009Y-80329887D02*
X98393628Y-80187030D01*
X98393628Y-80187030D02*
X98441247Y-80139411D01*
X98441247Y-80139411D02*
X98536485Y-80091792D01*
X98536485Y-80091792D02*
X98679342Y-80091792D01*
X98679342Y-80091792D02*
X98774580Y-80139411D01*
X98774580Y-80139411D02*
X98822200Y-80187030D01*
X98822200Y-80187030D02*
X98869819Y-80282268D01*
X98869819Y-80282268D02*
X98869819Y-80663220D01*
X98869819Y-80663220D02*
X97869819Y-80663220D01*
X97869819Y-80663220D02*
X97869819Y-80329887D01*
X97869819Y-80329887D02*
X97917438Y-80234649D01*
X97917438Y-80234649D02*
X97965057Y-80187030D01*
X97965057Y-80187030D02*
X98060295Y-80139411D01*
X98060295Y-80139411D02*
X98155533Y-80139411D01*
X98155533Y-80139411D02*
X98250771Y-80187030D01*
X98250771Y-80187030D02*
X98298390Y-80234649D01*
X98298390Y-80234649D02*
X98346009Y-80329887D01*
X98346009Y-80329887D02*
X98346009Y-80663220D01*
X97869819Y-79472744D02*
X97869819Y-79377506D01*
X97869819Y-79377506D02*
X97917438Y-79282268D01*
X97917438Y-79282268D02*
X97965057Y-79234649D01*
X97965057Y-79234649D02*
X98060295Y-79187030D01*
X98060295Y-79187030D02*
X98250771Y-79139411D01*
X98250771Y-79139411D02*
X98488866Y-79139411D01*
X98488866Y-79139411D02*
X98679342Y-79187030D01*
X98679342Y-79187030D02*
X98774580Y-79234649D01*
X98774580Y-79234649D02*
X98822200Y-79282268D01*
X98822200Y-79282268D02*
X98869819Y-79377506D01*
X98869819Y-79377506D02*
X98869819Y-79472744D01*
X98869819Y-79472744D02*
X98822200Y-79567982D01*
X98822200Y-79567982D02*
X98774580Y-79615601D01*
X98774580Y-79615601D02*
X98679342Y-79663220D01*
X98679342Y-79663220D02*
X98488866Y-79710839D01*
X98488866Y-79710839D02*
X98250771Y-79710839D01*
X98250771Y-79710839D02*
X98060295Y-79663220D01*
X98060295Y-79663220D02*
X97965057Y-79615601D01*
X97965057Y-79615601D02*
X97917438Y-79567982D01*
X97917438Y-79567982D02*
X97869819Y-79472744D01*
X97965057Y-78758458D02*
X97917438Y-78710839D01*
X97917438Y-78710839D02*
X97869819Y-78615601D01*
X97869819Y-78615601D02*
X97869819Y-78377506D01*
X97869819Y-78377506D02*
X97917438Y-78282268D01*
X97917438Y-78282268D02*
X97965057Y-78234649D01*
X97965057Y-78234649D02*
X98060295Y-78187030D01*
X98060295Y-78187030D02*
X98155533Y-78187030D01*
X98155533Y-78187030D02*
X98298390Y-78234649D01*
X98298390Y-78234649D02*
X98869819Y-78806077D01*
X98869819Y-78806077D02*
X98869819Y-78187030D01*
X102917438Y-58139411D02*
X102869819Y-58234649D01*
X102869819Y-58234649D02*
X102869819Y-58377506D01*
X102869819Y-58377506D02*
X102917438Y-58520363D01*
X102917438Y-58520363D02*
X103012676Y-58615601D01*
X103012676Y-58615601D02*
X103107914Y-58663220D01*
X103107914Y-58663220D02*
X103298390Y-58710839D01*
X103298390Y-58710839D02*
X103441247Y-58710839D01*
X103441247Y-58710839D02*
X103631723Y-58663220D01*
X103631723Y-58663220D02*
X103726961Y-58615601D01*
X103726961Y-58615601D02*
X103822200Y-58520363D01*
X103822200Y-58520363D02*
X103869819Y-58377506D01*
X103869819Y-58377506D02*
X103869819Y-58282268D01*
X103869819Y-58282268D02*
X103822200Y-58139411D01*
X103822200Y-58139411D02*
X103774580Y-58091792D01*
X103774580Y-58091792D02*
X103441247Y-58091792D01*
X103441247Y-58091792D02*
X103441247Y-58282268D01*
X103869819Y-57663220D02*
X102869819Y-57663220D01*
X102869819Y-57663220D02*
X103869819Y-57091792D01*
X103869819Y-57091792D02*
X102869819Y-57091792D01*
X103869819Y-56615601D02*
X102869819Y-56615601D01*
X102869819Y-56615601D02*
X102869819Y-56377506D01*
X102869819Y-56377506D02*
X102917438Y-56234649D01*
X102917438Y-56234649D02*
X103012676Y-56139411D01*
X103012676Y-56139411D02*
X103107914Y-56091792D01*
X103107914Y-56091792D02*
X103298390Y-56044173D01*
X103298390Y-56044173D02*
X103441247Y-56044173D01*
X103441247Y-56044173D02*
X103631723Y-56091792D01*
X103631723Y-56091792D02*
X103726961Y-56139411D01*
X103726961Y-56139411D02*
X103822200Y-56234649D01*
X103822200Y-56234649D02*
X103869819Y-56377506D01*
X103869819Y-56377506D02*
X103869819Y-56615601D01*
X76670112Y-88346009D02*
X76812969Y-88393628D01*
X76812969Y-88393628D02*
X76860588Y-88441247D01*
X76860588Y-88441247D02*
X76908207Y-88536485D01*
X76908207Y-88536485D02*
X76908207Y-88679342D01*
X76908207Y-88679342D02*
X76860588Y-88774580D01*
X76860588Y-88774580D02*
X76812969Y-88822200D01*
X76812969Y-88822200D02*
X76717731Y-88869819D01*
X76717731Y-88869819D02*
X76336779Y-88869819D01*
X76336779Y-88869819D02*
X76336779Y-87869819D01*
X76336779Y-87869819D02*
X76670112Y-87869819D01*
X76670112Y-87869819D02*
X76765350Y-87917438D01*
X76765350Y-87917438D02*
X76812969Y-87965057D01*
X76812969Y-87965057D02*
X76860588Y-88060295D01*
X76860588Y-88060295D02*
X76860588Y-88155533D01*
X76860588Y-88155533D02*
X76812969Y-88250771D01*
X76812969Y-88250771D02*
X76765350Y-88298390D01*
X76765350Y-88298390D02*
X76670112Y-88346009D01*
X76670112Y-88346009D02*
X76336779Y-88346009D01*
X77527255Y-87869819D02*
X77622493Y-87869819D01*
X77622493Y-87869819D02*
X77717731Y-87917438D01*
X77717731Y-87917438D02*
X77765350Y-87965057D01*
X77765350Y-87965057D02*
X77812969Y-88060295D01*
X77812969Y-88060295D02*
X77860588Y-88250771D01*
X77860588Y-88250771D02*
X77860588Y-88488866D01*
X77860588Y-88488866D02*
X77812969Y-88679342D01*
X77812969Y-88679342D02*
X77765350Y-88774580D01*
X77765350Y-88774580D02*
X77717731Y-88822200D01*
X77717731Y-88822200D02*
X77622493Y-88869819D01*
X77622493Y-88869819D02*
X77527255Y-88869819D01*
X77527255Y-88869819D02*
X77432017Y-88822200D01*
X77432017Y-88822200D02*
X77384398Y-88774580D01*
X77384398Y-88774580D02*
X77336779Y-88679342D01*
X77336779Y-88679342D02*
X77289160Y-88488866D01*
X77289160Y-88488866D02*
X77289160Y-88250771D01*
X77289160Y-88250771D02*
X77336779Y-88060295D01*
X77336779Y-88060295D02*
X77384398Y-87965057D01*
X77384398Y-87965057D02*
X77432017Y-87917438D01*
X77432017Y-87917438D02*
X77527255Y-87869819D01*
X78241541Y-87965057D02*
X78289160Y-87917438D01*
X78289160Y-87917438D02*
X78384398Y-87869819D01*
X78384398Y-87869819D02*
X78622493Y-87869819D01*
X78622493Y-87869819D02*
X78717731Y-87917438D01*
X78717731Y-87917438D02*
X78765350Y-87965057D01*
X78765350Y-87965057D02*
X78812969Y-88060295D01*
X78812969Y-88060295D02*
X78812969Y-88155533D01*
X78812969Y-88155533D02*
X78765350Y-88298390D01*
X78765350Y-88298390D02*
X78193922Y-88869819D01*
X78193922Y-88869819D02*
X78812969Y-88869819D01*
X90289160Y-99584104D02*
X90765350Y-99584104D01*
X90193922Y-99869819D02*
X90527255Y-98869819D01*
X90527255Y-98869819D02*
X90860588Y-99869819D01*
X91193922Y-99203152D02*
X91193922Y-99869819D01*
X91193922Y-99298390D02*
X91241541Y-99250771D01*
X91241541Y-99250771D02*
X91336779Y-99203152D01*
X91336779Y-99203152D02*
X91479636Y-99203152D01*
X91479636Y-99203152D02*
X91574874Y-99250771D01*
X91574874Y-99250771D02*
X91622493Y-99346009D01*
X91622493Y-99346009D02*
X91622493Y-99869819D01*
X92098684Y-99869819D02*
X92098684Y-99203152D01*
X92098684Y-98869819D02*
X92051065Y-98917438D01*
X92051065Y-98917438D02*
X92098684Y-98965057D01*
X92098684Y-98965057D02*
X92146303Y-98917438D01*
X92146303Y-98917438D02*
X92098684Y-98869819D01*
X92098684Y-98869819D02*
X92098684Y-98965057D01*
X92432017Y-99203152D02*
X92812969Y-99203152D01*
X92574874Y-98869819D02*
X92574874Y-99726961D01*
X92574874Y-99726961D02*
X92622493Y-99822200D01*
X92622493Y-99822200D02*
X92717731Y-99869819D01*
X92717731Y-99869819D02*
X92812969Y-99869819D01*
X93574874Y-99869819D02*
X93574874Y-99346009D01*
X93574874Y-99346009D02*
X93527255Y-99250771D01*
X93527255Y-99250771D02*
X93432017Y-99203152D01*
X93432017Y-99203152D02*
X93241541Y-99203152D01*
X93241541Y-99203152D02*
X93146303Y-99250771D01*
X93574874Y-99822200D02*
X93479636Y-99869819D01*
X93479636Y-99869819D02*
X93241541Y-99869819D01*
X93241541Y-99869819D02*
X93146303Y-99822200D01*
X93146303Y-99822200D02*
X93098684Y-99726961D01*
X93098684Y-99726961D02*
X93098684Y-99631723D01*
X93098684Y-99631723D02*
X93146303Y-99536485D01*
X93146303Y-99536485D02*
X93241541Y-99488866D01*
X93241541Y-99488866D02*
X93479636Y-99488866D01*
X93479636Y-99488866D02*
X93574874Y-99441247D01*
X94812970Y-99869819D02*
X94812970Y-98869819D01*
X94812970Y-99346009D02*
X95384398Y-99346009D01*
X95384398Y-99869819D02*
X95384398Y-98869819D01*
X96289160Y-99203152D02*
X96289160Y-99869819D01*
X95860589Y-99203152D02*
X95860589Y-99726961D01*
X95860589Y-99726961D02*
X95908208Y-99822200D01*
X95908208Y-99822200D02*
X96003446Y-99869819D01*
X96003446Y-99869819D02*
X96146303Y-99869819D01*
X96146303Y-99869819D02*
X96241541Y-99822200D01*
X96241541Y-99822200D02*
X96289160Y-99774580D01*
X97193922Y-99869819D02*
X97193922Y-99346009D01*
X97193922Y-99346009D02*
X97146303Y-99250771D01*
X97146303Y-99250771D02*
X97051065Y-99203152D01*
X97051065Y-99203152D02*
X96860589Y-99203152D01*
X96860589Y-99203152D02*
X96765351Y-99250771D01*
X97193922Y-99822200D02*
X97098684Y-99869819D01*
X97098684Y-99869819D02*
X96860589Y-99869819D01*
X96860589Y-99869819D02*
X96765351Y-99822200D01*
X96765351Y-99822200D02*
X96717732Y-99726961D01*
X96717732Y-99726961D02*
X96717732Y-99631723D01*
X96717732Y-99631723D02*
X96765351Y-99536485D01*
X96765351Y-99536485D02*
X96860589Y-99488866D01*
X96860589Y-99488866D02*
X97098684Y-99488866D01*
X97098684Y-99488866D02*
X97193922Y-99441247D01*
X97670113Y-99203152D02*
X97670113Y-99869819D01*
X97670113Y-99298390D02*
X97717732Y-99250771D01*
X97717732Y-99250771D02*
X97812970Y-99203152D01*
X97812970Y-99203152D02*
X97955827Y-99203152D01*
X97955827Y-99203152D02*
X98051065Y-99250771D01*
X98051065Y-99250771D02*
X98098684Y-99346009D01*
X98098684Y-99346009D02*
X98098684Y-99869819D01*
X99003446Y-99203152D02*
X99003446Y-100012676D01*
X99003446Y-100012676D02*
X98955827Y-100107914D01*
X98955827Y-100107914D02*
X98908208Y-100155533D01*
X98908208Y-100155533D02*
X98812970Y-100203152D01*
X98812970Y-100203152D02*
X98670113Y-100203152D01*
X98670113Y-100203152D02*
X98574875Y-100155533D01*
X99003446Y-99822200D02*
X98908208Y-99869819D01*
X98908208Y-99869819D02*
X98717732Y-99869819D01*
X98717732Y-99869819D02*
X98622494Y-99822200D01*
X98622494Y-99822200D02*
X98574875Y-99774580D01*
X98574875Y-99774580D02*
X98527256Y-99679342D01*
X98527256Y-99679342D02*
X98527256Y-99393628D01*
X98527256Y-99393628D02*
X98574875Y-99298390D01*
X98574875Y-99298390D02*
X98622494Y-99250771D01*
X98622494Y-99250771D02*
X98717732Y-99203152D01*
X98717732Y-99203152D02*
X98908208Y-99203152D01*
X98908208Y-99203152D02*
X99003446Y-99250771D01*
X101051066Y-99869819D02*
X101003447Y-99869819D01*
X101003447Y-99869819D02*
X100908208Y-99822200D01*
X100908208Y-99822200D02*
X100765351Y-99679342D01*
X100765351Y-99679342D02*
X100527256Y-99393628D01*
X100527256Y-99393628D02*
X100432018Y-99250771D01*
X100432018Y-99250771D02*
X100384399Y-99107914D01*
X100384399Y-99107914D02*
X100384399Y-99012676D01*
X100384399Y-99012676D02*
X100432018Y-98917438D01*
X100432018Y-98917438D02*
X100527256Y-98869819D01*
X100527256Y-98869819D02*
X100574875Y-98869819D01*
X100574875Y-98869819D02*
X100670113Y-98917438D01*
X100670113Y-98917438D02*
X100717732Y-99012676D01*
X100717732Y-99012676D02*
X100717732Y-99060295D01*
X100717732Y-99060295D02*
X100670113Y-99155533D01*
X100670113Y-99155533D02*
X100622494Y-99203152D01*
X100622494Y-99203152D02*
X100336780Y-99393628D01*
X100336780Y-99393628D02*
X100289161Y-99441247D01*
X100289161Y-99441247D02*
X100241542Y-99536485D01*
X100241542Y-99536485D02*
X100241542Y-99679342D01*
X100241542Y-99679342D02*
X100289161Y-99774580D01*
X100289161Y-99774580D02*
X100336780Y-99822200D01*
X100336780Y-99822200D02*
X100432018Y-99869819D01*
X100432018Y-99869819D02*
X100574875Y-99869819D01*
X100574875Y-99869819D02*
X100670113Y-99822200D01*
X100670113Y-99822200D02*
X100717732Y-99774580D01*
X100717732Y-99774580D02*
X100860589Y-99584104D01*
X100860589Y-99584104D02*
X100908208Y-99441247D01*
X100908208Y-99441247D02*
X100908208Y-99346009D01*
X102765351Y-98917438D02*
X102670113Y-98869819D01*
X102670113Y-98869819D02*
X102527256Y-98869819D01*
X102527256Y-98869819D02*
X102384399Y-98917438D01*
X102384399Y-98917438D02*
X102289161Y-99012676D01*
X102289161Y-99012676D02*
X102241542Y-99107914D01*
X102241542Y-99107914D02*
X102193923Y-99298390D01*
X102193923Y-99298390D02*
X102193923Y-99441247D01*
X102193923Y-99441247D02*
X102241542Y-99631723D01*
X102241542Y-99631723D02*
X102289161Y-99726961D01*
X102289161Y-99726961D02*
X102384399Y-99822200D01*
X102384399Y-99822200D02*
X102527256Y-99869819D01*
X102527256Y-99869819D02*
X102622494Y-99869819D01*
X102622494Y-99869819D02*
X102765351Y-99822200D01*
X102765351Y-99822200D02*
X102812970Y-99774580D01*
X102812970Y-99774580D02*
X102812970Y-99441247D01*
X102812970Y-99441247D02*
X102622494Y-99441247D01*
X103670113Y-99869819D02*
X103670113Y-99346009D01*
X103670113Y-99346009D02*
X103622494Y-99250771D01*
X103622494Y-99250771D02*
X103527256Y-99203152D01*
X103527256Y-99203152D02*
X103336780Y-99203152D01*
X103336780Y-99203152D02*
X103241542Y-99250771D01*
X103670113Y-99822200D02*
X103574875Y-99869819D01*
X103574875Y-99869819D02*
X103336780Y-99869819D01*
X103336780Y-99869819D02*
X103241542Y-99822200D01*
X103241542Y-99822200D02*
X103193923Y-99726961D01*
X103193923Y-99726961D02*
X103193923Y-99631723D01*
X103193923Y-99631723D02*
X103241542Y-99536485D01*
X103241542Y-99536485D02*
X103336780Y-99488866D01*
X103336780Y-99488866D02*
X103574875Y-99488866D01*
X103574875Y-99488866D02*
X103670113Y-99441247D01*
X104146304Y-99869819D02*
X104146304Y-98869819D01*
X104146304Y-99250771D02*
X104241542Y-99203152D01*
X104241542Y-99203152D02*
X104432018Y-99203152D01*
X104432018Y-99203152D02*
X104527256Y-99250771D01*
X104527256Y-99250771D02*
X104574875Y-99298390D01*
X104574875Y-99298390D02*
X104622494Y-99393628D01*
X104622494Y-99393628D02*
X104622494Y-99679342D01*
X104622494Y-99679342D02*
X104574875Y-99774580D01*
X104574875Y-99774580D02*
X104527256Y-99822200D01*
X104527256Y-99822200D02*
X104432018Y-99869819D01*
X104432018Y-99869819D02*
X104241542Y-99869819D01*
X104241542Y-99869819D02*
X104146304Y-99822200D01*
X105051066Y-99869819D02*
X105051066Y-99203152D01*
X105051066Y-99393628D02*
X105098685Y-99298390D01*
X105098685Y-99298390D02*
X105146304Y-99250771D01*
X105146304Y-99250771D02*
X105241542Y-99203152D01*
X105241542Y-99203152D02*
X105336780Y-99203152D01*
X105670114Y-99869819D02*
X105670114Y-99203152D01*
X105670114Y-98869819D02*
X105622495Y-98917438D01*
X105622495Y-98917438D02*
X105670114Y-98965057D01*
X105670114Y-98965057D02*
X105717733Y-98917438D01*
X105717733Y-98917438D02*
X105670114Y-98869819D01*
X105670114Y-98869819D02*
X105670114Y-98965057D01*
X106527256Y-99822200D02*
X106432018Y-99869819D01*
X106432018Y-99869819D02*
X106241542Y-99869819D01*
X106241542Y-99869819D02*
X106146304Y-99822200D01*
X106146304Y-99822200D02*
X106098685Y-99726961D01*
X106098685Y-99726961D02*
X106098685Y-99346009D01*
X106098685Y-99346009D02*
X106146304Y-99250771D01*
X106146304Y-99250771D02*
X106241542Y-99203152D01*
X106241542Y-99203152D02*
X106432018Y-99203152D01*
X106432018Y-99203152D02*
X106527256Y-99250771D01*
X106527256Y-99250771D02*
X106574875Y-99346009D01*
X106574875Y-99346009D02*
X106574875Y-99441247D01*
X106574875Y-99441247D02*
X106098685Y-99536485D01*
X107146304Y-99869819D02*
X107051066Y-99822200D01*
X107051066Y-99822200D02*
X107003447Y-99726961D01*
X107003447Y-99726961D02*
X107003447Y-98869819D01*
X108479638Y-99393628D02*
X108479638Y-99869819D01*
X108146305Y-98869819D02*
X108479638Y-99393628D01*
X108479638Y-99393628D02*
X108812971Y-98869819D01*
X109574876Y-99203152D02*
X109574876Y-99869819D01*
X109146305Y-99203152D02*
X109146305Y-99726961D01*
X109146305Y-99726961D02*
X109193924Y-99822200D01*
X109193924Y-99822200D02*
X109289162Y-99869819D01*
X109289162Y-99869819D02*
X109432019Y-99869819D01*
X109432019Y-99869819D02*
X109527257Y-99822200D01*
X109527257Y-99822200D02*
X109574876Y-99774580D01*
X110432019Y-99822200D02*
X110336781Y-99869819D01*
X110336781Y-99869819D02*
X110146305Y-99869819D01*
X110146305Y-99869819D02*
X110051067Y-99822200D01*
X110051067Y-99822200D02*
X110003448Y-99726961D01*
X110003448Y-99726961D02*
X110003448Y-99346009D01*
X110003448Y-99346009D02*
X110051067Y-99250771D01*
X110051067Y-99250771D02*
X110146305Y-99203152D01*
X110146305Y-99203152D02*
X110336781Y-99203152D01*
X110336781Y-99203152D02*
X110432019Y-99250771D01*
X110432019Y-99250771D02*
X110479638Y-99346009D01*
X110479638Y-99346009D02*
X110479638Y-99441247D01*
X110479638Y-99441247D02*
X110003448Y-99536485D01*
X110908210Y-99203152D02*
X110908210Y-99869819D01*
X110908210Y-99298390D02*
X110955829Y-99250771D01*
X110955829Y-99250771D02*
X111051067Y-99203152D01*
X111051067Y-99203152D02*
X111193924Y-99203152D01*
X111193924Y-99203152D02*
X111289162Y-99250771D01*
X111289162Y-99250771D02*
X111336781Y-99346009D01*
X111336781Y-99346009D02*
X111336781Y-99869819D01*
X90584104Y-58710839D02*
X90584104Y-58234649D01*
X90869819Y-58806077D02*
X89869819Y-58472744D01*
X89869819Y-58472744D02*
X90869819Y-58139411D01*
X90869819Y-57806077D02*
X89869819Y-57806077D01*
X90869819Y-56806078D02*
X90869819Y-57377506D01*
X90869819Y-57091792D02*
X89869819Y-57091792D01*
X89869819Y-57091792D02*
X90012676Y-57187030D01*
X90012676Y-57187030D02*
X90107914Y-57282268D01*
X90107914Y-57282268D02*
X90155533Y-57377506D01*
X131920476Y-96264819D02*
X131920476Y-95264819D01*
X131920476Y-95264819D02*
X132253809Y-95979104D01*
X132253809Y-95979104D02*
X132587142Y-95264819D01*
X132587142Y-95264819D02*
X132587142Y-96264819D01*
X133063333Y-96264819D02*
X133063333Y-95264819D01*
X133634761Y-96264819D02*
X133206190Y-95693390D01*
X133634761Y-95264819D02*
X133063333Y-95836247D01*
X134491904Y-95598152D02*
X134491904Y-96264819D01*
X134253809Y-95217200D02*
X134015714Y-95931485D01*
X134015714Y-95931485D02*
X134634761Y-95931485D01*
X109666666Y-87584819D02*
X109666666Y-88299104D01*
X109666666Y-88299104D02*
X109619047Y-88441961D01*
X109619047Y-88441961D02*
X109523809Y-88537200D01*
X109523809Y-88537200D02*
X109380952Y-88584819D01*
X109380952Y-88584819D02*
X109285714Y-88584819D01*
X110571428Y-87584819D02*
X110380952Y-87584819D01*
X110380952Y-87584819D02*
X110285714Y-87632438D01*
X110285714Y-87632438D02*
X110238095Y-87680057D01*
X110238095Y-87680057D02*
X110142857Y-87822914D01*
X110142857Y-87822914D02*
X110095238Y-88013390D01*
X110095238Y-88013390D02*
X110095238Y-88394342D01*
X110095238Y-88394342D02*
X110142857Y-88489580D01*
X110142857Y-88489580D02*
X110190476Y-88537200D01*
X110190476Y-88537200D02*
X110285714Y-88584819D01*
X110285714Y-88584819D02*
X110476190Y-88584819D01*
X110476190Y-88584819D02*
X110571428Y-88537200D01*
X110571428Y-88537200D02*
X110619047Y-88489580D01*
X110619047Y-88489580D02*
X110666666Y-88394342D01*
X110666666Y-88394342D02*
X110666666Y-88156247D01*
X110666666Y-88156247D02*
X110619047Y-88061009D01*
X110619047Y-88061009D02*
X110571428Y-88013390D01*
X110571428Y-88013390D02*
X110476190Y-87965771D01*
X110476190Y-87965771D02*
X110285714Y-87965771D01*
X110285714Y-87965771D02*
X110190476Y-88013390D01*
X110190476Y-88013390D02*
X110142857Y-88061009D01*
X110142857Y-88061009D02*
X110095238Y-88156247D01*
X73666666Y-64784819D02*
X73666666Y-65499104D01*
X73666666Y-65499104D02*
X73619047Y-65641961D01*
X73619047Y-65641961D02*
X73523809Y-65737200D01*
X73523809Y-65737200D02*
X73380952Y-65784819D01*
X73380952Y-65784819D02*
X73285714Y-65784819D01*
X74047619Y-64784819D02*
X74666666Y-64784819D01*
X74666666Y-64784819D02*
X74333333Y-65165771D01*
X74333333Y-65165771D02*
X74476190Y-65165771D01*
X74476190Y-65165771D02*
X74571428Y-65213390D01*
X74571428Y-65213390D02*
X74619047Y-65261009D01*
X74619047Y-65261009D02*
X74666666Y-65356247D01*
X74666666Y-65356247D02*
X74666666Y-65594342D01*
X74666666Y-65594342D02*
X74619047Y-65689580D01*
X74619047Y-65689580D02*
X74571428Y-65737200D01*
X74571428Y-65737200D02*
X74476190Y-65784819D01*
X74476190Y-65784819D02*
X74190476Y-65784819D01*
X74190476Y-65784819D02*
X74095238Y-65737200D01*
X74095238Y-65737200D02*
X74047619Y-65689580D01*
X94444171Y-87599819D02*
X94444171Y-88314104D01*
X94444171Y-88314104D02*
X94396552Y-88456961D01*
X94396552Y-88456961D02*
X94301314Y-88552200D01*
X94301314Y-88552200D02*
X94158457Y-88599819D01*
X94158457Y-88599819D02*
X94063219Y-88599819D01*
X95396552Y-87599819D02*
X94920362Y-87599819D01*
X94920362Y-87599819D02*
X94872743Y-88076009D01*
X94872743Y-88076009D02*
X94920362Y-88028390D01*
X94920362Y-88028390D02*
X95015600Y-87980771D01*
X95015600Y-87980771D02*
X95253695Y-87980771D01*
X95253695Y-87980771D02*
X95348933Y-88028390D01*
X95348933Y-88028390D02*
X95396552Y-88076009D01*
X95396552Y-88076009D02*
X95444171Y-88171247D01*
X95444171Y-88171247D02*
X95444171Y-88409342D01*
X95444171Y-88409342D02*
X95396552Y-88504580D01*
X95396552Y-88504580D02*
X95348933Y-88552200D01*
X95348933Y-88552200D02*
X95253695Y-88599819D01*
X95253695Y-88599819D02*
X95015600Y-88599819D01*
X95015600Y-88599819D02*
X94920362Y-88552200D01*
X94920362Y-88552200D02*
X94872743Y-88504580D01*
X73666666Y-92784819D02*
X73666666Y-93499104D01*
X73666666Y-93499104D02*
X73619047Y-93641961D01*
X73619047Y-93641961D02*
X73523809Y-93737200D01*
X73523809Y-93737200D02*
X73380952Y-93784819D01*
X73380952Y-93784819D02*
X73285714Y-93784819D01*
X74571428Y-93118152D02*
X74571428Y-93784819D01*
X74333333Y-92737200D02*
X74095238Y-93451485D01*
X74095238Y-93451485D02*
X74714285Y-93451485D01*
X82384819Y-61433333D02*
X83099104Y-61433333D01*
X83099104Y-61433333D02*
X83241961Y-61480952D01*
X83241961Y-61480952D02*
X83337200Y-61576190D01*
X83337200Y-61576190D02*
X83384819Y-61719047D01*
X83384819Y-61719047D02*
X83384819Y-61814285D01*
X82480057Y-61004761D02*
X82432438Y-60957142D01*
X82432438Y-60957142D02*
X82384819Y-60861904D01*
X82384819Y-60861904D02*
X82384819Y-60623809D01*
X82384819Y-60623809D02*
X82432438Y-60528571D01*
X82432438Y-60528571D02*
X82480057Y-60480952D01*
X82480057Y-60480952D02*
X82575295Y-60433333D01*
X82575295Y-60433333D02*
X82670533Y-60433333D01*
X82670533Y-60433333D02*
X82813390Y-60480952D01*
X82813390Y-60480952D02*
X83384819Y-61052380D01*
X83384819Y-61052380D02*
X83384819Y-60433333D01*
X131920476Y-54664819D02*
X131920476Y-53664819D01*
X131920476Y-53664819D02*
X132253809Y-54379104D01*
X132253809Y-54379104D02*
X132587142Y-53664819D01*
X132587142Y-53664819D02*
X132587142Y-54664819D01*
X133063333Y-54664819D02*
X133063333Y-53664819D01*
X133634761Y-54664819D02*
X133206190Y-54093390D01*
X133634761Y-53664819D02*
X133063333Y-54236247D01*
X134015714Y-53760057D02*
X134063333Y-53712438D01*
X134063333Y-53712438D02*
X134158571Y-53664819D01*
X134158571Y-53664819D02*
X134396666Y-53664819D01*
X134396666Y-53664819D02*
X134491904Y-53712438D01*
X134491904Y-53712438D02*
X134539523Y-53760057D01*
X134539523Y-53760057D02*
X134587142Y-53855295D01*
X134587142Y-53855295D02*
X134587142Y-53950533D01*
X134587142Y-53950533D02*
X134539523Y-54093390D01*
X134539523Y-54093390D02*
X133968095Y-54664819D01*
X133968095Y-54664819D02*
X134587142Y-54664819D01*
X73920476Y-54664819D02*
X73920476Y-53664819D01*
X73920476Y-53664819D02*
X74253809Y-54379104D01*
X74253809Y-54379104D02*
X74587142Y-53664819D01*
X74587142Y-53664819D02*
X74587142Y-54664819D01*
X75063333Y-54664819D02*
X75063333Y-53664819D01*
X75634761Y-54664819D02*
X75206190Y-54093390D01*
X75634761Y-53664819D02*
X75063333Y-54236247D01*
X76587142Y-54664819D02*
X76015714Y-54664819D01*
X76301428Y-54664819D02*
X76301428Y-53664819D01*
X76301428Y-53664819D02*
X76206190Y-53807676D01*
X76206190Y-53807676D02*
X76110952Y-53902914D01*
X76110952Y-53902914D02*
X76015714Y-53950533D01*
X73920476Y-96264819D02*
X73920476Y-95264819D01*
X73920476Y-95264819D02*
X74253809Y-95979104D01*
X74253809Y-95979104D02*
X74587142Y-95264819D01*
X74587142Y-95264819D02*
X74587142Y-96264819D01*
X75063333Y-96264819D02*
X75063333Y-95264819D01*
X75634761Y-96264819D02*
X75206190Y-95693390D01*
X75634761Y-95264819D02*
X75063333Y-95836247D01*
X75968095Y-95264819D02*
X76587142Y-95264819D01*
X76587142Y-95264819D02*
X76253809Y-95645771D01*
X76253809Y-95645771D02*
X76396666Y-95645771D01*
X76396666Y-95645771D02*
X76491904Y-95693390D01*
X76491904Y-95693390D02*
X76539523Y-95741009D01*
X76539523Y-95741009D02*
X76587142Y-95836247D01*
X76587142Y-95836247D02*
X76587142Y-96074342D01*
X76587142Y-96074342D02*
X76539523Y-96169580D01*
X76539523Y-96169580D02*
X76491904Y-96217200D01*
X76491904Y-96217200D02*
X76396666Y-96264819D01*
X76396666Y-96264819D02*
X76110952Y-96264819D01*
X76110952Y-96264819D02*
X76015714Y-96217200D01*
X76015714Y-96217200D02*
X75968095Y-96169580D01*
X82424819Y-76433333D02*
X83139104Y-76433333D01*
X83139104Y-76433333D02*
X83281961Y-76480952D01*
X83281961Y-76480952D02*
X83377200Y-76576190D01*
X83377200Y-76576190D02*
X83424819Y-76719047D01*
X83424819Y-76719047D02*
X83424819Y-76814285D01*
X83424819Y-75433333D02*
X83424819Y-76004761D01*
X83424819Y-75719047D02*
X82424819Y-75719047D01*
X82424819Y-75719047D02*
X82567676Y-75814285D01*
X82567676Y-75814285D02*
X82662914Y-75909523D01*
X82662914Y-75909523D02*
X82710533Y-76004761D01*
D11*
X111330000Y-91730000D02*
X111330000Y-96870000D01*
X108670000Y-96870000D02*
X111330000Y-96870000D01*
X108670000Y-91730000D02*
X111330000Y-91730000D01*
X108670000Y-91730000D02*
X108670000Y-96870000D01*
X108670000Y-90460000D02*
X108670000Y-89130000D01*
X108670000Y-89130000D02*
X110000000Y-89130000D01*
X72670000Y-61730000D02*
X72670000Y-59130000D01*
X75330000Y-59130000D02*
X72670000Y-59130000D01*
X75330000Y-61730000D02*
X72670000Y-61730000D01*
X75330000Y-61730000D02*
X75330000Y-59130000D01*
X75330000Y-63000000D02*
X75330000Y-64330000D01*
X75330000Y-64330000D02*
X74000000Y-64330000D01*
X93447505Y-89145000D02*
X94777505Y-89145000D01*
X93447505Y-90475000D02*
X93447505Y-89145000D01*
X93447505Y-91745000D02*
X93447505Y-96885000D01*
X93447505Y-91745000D02*
X96107505Y-91745000D01*
X93447505Y-96885000D02*
X96107505Y-96885000D01*
X96107505Y-91745000D02*
X96107505Y-96885000D01*
X72670000Y-89730000D02*
X72670000Y-87130000D01*
X75330000Y-87130000D02*
X72670000Y-87130000D01*
X75330000Y-89730000D02*
X72670000Y-89730000D01*
X75330000Y-89730000D02*
X75330000Y-87130000D01*
X75330000Y-91000000D02*
X75330000Y-92330000D01*
X75330000Y-92330000D02*
X74000000Y-92330000D01*
X104810000Y-62430000D02*
X104810000Y-59770000D01*
X86970000Y-62430000D02*
X104810000Y-62430000D01*
X86970000Y-62430000D02*
X86970000Y-59770000D01*
X86970000Y-59770000D02*
X104810000Y-59770000D01*
X84370000Y-61100000D02*
X84370000Y-59770000D01*
X84370000Y-59770000D02*
X85700000Y-59770000D01*
X104850000Y-77430000D02*
X104850000Y-74770000D01*
X87010000Y-77430000D02*
X104850000Y-77430000D01*
X87010000Y-77430000D02*
X87010000Y-74770000D01*
X87010000Y-74770000D02*
X104850000Y-74770000D01*
X84410000Y-76100000D02*
X84410000Y-74770000D01*
X84410000Y-74770000D02*
X85740000Y-74770000D01*
M02*
